<svg xmlns="http://www.w3.org/2000/svg" width="10" height="9" viewBox="0 0 10 9" fill="none">
  <path d="M5.00052 5.43337L1.73385 8.70003C1.61163 8.82226 1.45608 8.88337 1.26719 8.88337C1.0783 8.88337 0.922743 8.82226 0.800521 8.70003C0.678299 8.57781 0.617188 8.42226 0.617188 8.23337C0.617188 8.04448 0.678299 7.88892 0.800521 7.7667L4.06719 4.50003L0.800521 1.23337C0.678299 1.11114 0.617188 0.955588 0.617188 0.766699C0.617188 0.57781 0.678299 0.422255 0.800521 0.300033C0.922743 0.17781 1.0783 0.116699 1.26719 0.116699C1.45608 0.116699 1.61163 0.17781 1.73385 0.300033L5.00052 3.5667L8.26719 0.300033C8.38941 0.17781 8.54497 0.116699 8.73385 0.116699C8.92274 0.116699 9.0783 0.17781 9.20052 0.300033C9.32274 0.422255 9.38385 0.57781 9.38385 0.766699C9.38385 0.955588 9.32274 1.11114 9.20052 1.23337L5.93385 4.50003L9.20052 7.7667C9.32274 7.88892 9.38385 8.04448 9.38385 8.23337C9.38385 8.42226 9.32274 8.57781 9.20052 8.70003C9.0783 8.82226 8.92274 8.88337 8.73385 8.88337C8.54497 8.88337 8.38941 8.82226 8.26719 8.70003L5.00052 5.43337Z" fill="#1C1B1F"/>
</svg>