<svg xmlns="http://www.w3.org/2000/svg" width="124" height="32" viewBox="0 0 124 32" fill="none">
  <path d="M16.8546 25.4836C15.2089 25.4836 13.7959 25.201 12.6157 24.6358C11.4354 24.054 10.4629 23.2977 9.69826 22.3668C8.93358 21.4192 8.36839 20.3969 8.00267 19.2997C7.63696 18.2026 7.4541 17.1387 7.4541 16.1081V15.5595C7.4541 14.4125 7.63696 13.2904 8.00267 12.1932C8.38501 11.0795 8.95852 10.0738 9.72319 9.1761C10.5045 8.27844 11.477 7.56363 12.6406 7.03169C13.8042 6.49974 15.1673 6.23376 16.7299 6.23376C18.3923 6.23376 19.8635 6.54961 21.1435 7.1813C22.4401 7.79636 23.479 8.66909 24.2603 9.79948C25.0416 10.9132 25.4988 12.2099 25.6318 13.6893H20.9938C20.8775 13.0577 20.6281 12.5091 20.2458 12.0436C19.8635 11.5782 19.3731 11.2208 18.7746 10.9714C18.1762 10.7055 17.4946 10.5725 16.7299 10.5725C16.0151 10.5725 15.3668 10.6971 14.785 10.9465C14.2198 11.1958 13.7377 11.5532 13.3388 12.0187C12.9564 12.4675 12.6572 13.0161 12.4411 13.6644C12.2416 14.3127 12.1419 15.0442 12.1419 15.8587C12.1419 16.6732 12.2416 17.4047 12.4411 18.053C12.6572 18.7013 12.9648 19.2582 13.3637 19.7236C13.7793 20.1891 14.278 20.5465 14.8598 20.7958C15.4416 21.0286 16.1066 21.1449 16.8546 21.1449C18.0183 21.1449 18.999 20.8623 19.797 20.2971C20.6115 19.7319 21.1019 18.9756 21.2681 18.0281H25.9061C25.7564 19.3912 25.2993 20.6379 24.5346 21.7683C23.7699 22.8987 22.7393 23.8047 21.4427 24.4862C20.1461 25.1512 18.6167 25.4836 16.8546 25.4836Z" fill="#131313"/>
  <path d="M28.1442 24.9849V6.78234H32.6824V17.1553H32.0839C32.0839 15.759 32.2585 14.587 32.6075 13.6395C32.9566 12.6919 33.4636 11.9771 34.1286 11.4951C34.8101 11.013 35.6496 10.7719 36.647 10.7719H36.8465C38.3426 10.7719 39.4813 11.3122 40.2626 12.3927C41.0605 13.4732 41.4595 15.0608 41.4595 17.1553V24.9849H36.9213V16.9808C36.9213 16.3491 36.7301 15.8338 36.3478 15.4348C35.9655 15.0192 35.4585 14.8114 34.8268 14.8114C34.1951 14.8114 33.6798 15.0192 33.2808 15.4348C32.8818 15.8338 32.6824 16.3657 32.6824 17.0306V24.9849H28.1442Z" fill="#131313"/>
  <path d="M44.5078 24.9849V11.2208H48.0985V17.2052H48.0486C48.0486 15.2769 48.4475 13.7642 49.2455 12.667C50.06 11.5699 51.2236 11.0213 52.7364 11.0213H53.2849V14.9112H52.2377C51.2237 14.9112 50.434 15.1855 49.8688 15.734C49.3203 16.2826 49.046 17.0722 49.046 18.1029V24.9849H44.5078Z" fill="#131313"/>
  <path d="M61.8844 25.4836C60.6709 25.4836 59.5904 25.3008 58.6429 24.9351C57.6953 24.5693 56.8891 24.0623 56.2242 23.414C55.5759 22.7657 55.0772 22.0177 54.7281 21.1699C54.3956 20.3221 54.2294 19.4161 54.2294 18.4519V17.8535C54.2294 16.8561 54.4039 15.9252 54.753 15.0608C55.1187 14.1964 55.634 13.44 56.299 12.7917C56.9639 12.1434 57.7701 11.6364 58.7177 11.2706C59.6652 10.9049 60.7208 10.7221 61.8844 10.7221C63.0647 10.7221 64.1203 10.9049 65.0512 11.2706C65.9987 11.6364 66.8049 12.1434 67.4699 12.7917C68.1348 13.44 68.6418 14.1964 68.9909 15.0608C69.3566 15.9252 69.5395 16.8561 69.5395 17.8535V18.4519C69.5395 19.4161 69.3649 20.3221 69.0159 21.1699C68.6834 22.0177 68.1847 22.7657 67.5198 23.414C66.8714 24.0623 66.0735 24.5693 65.126 24.9351C64.1785 25.3008 63.0979 25.4836 61.8844 25.4836ZM61.8844 21.6935C62.5826 21.6935 63.1561 21.5439 63.6049 21.2447C64.0704 20.9455 64.4195 20.5299 64.6522 19.9979C64.8849 19.4493 65.0013 18.8343 65.0013 18.1527C65.0013 17.4379 64.8766 16.8145 64.6273 16.2826C64.3946 15.734 64.0455 15.3018 63.58 14.986C63.1146 14.6701 62.5494 14.5122 61.8844 14.5122C61.2195 14.5122 60.6543 14.6701 60.1888 14.986C59.7234 15.3018 59.366 15.734 59.1166 16.2826C58.8839 16.8145 58.7675 17.4379 58.7675 18.1527C58.7675 18.8343 58.8839 19.4493 59.1166 19.9979C59.3494 20.5299 59.6985 20.9455 60.1639 21.2447C60.6294 21.5439 61.2029 21.6935 61.8844 21.6935Z" fill="#131313"/>
  <path d="M72.024 24.9849V11.2208H75.6147V17.1304H75.4152C75.4152 15.7008 75.5981 14.5205 75.9638 13.5896C76.3295 12.6421 76.8698 11.9356 77.5846 11.4701C78.316 11.0047 79.197 10.7719 80.2277 10.7719H80.4272C81.9898 10.7719 83.1949 11.2956 84.0427 12.3429C84.9072 13.3735 85.3394 14.961 85.3394 17.1055V24.9849H80.8012V16.9808C80.8012 16.3491 80.61 15.8338 80.2277 15.4348C79.862 15.0192 79.3549 14.8114 78.7066 14.8114C78.0583 14.8114 77.5347 15.0192 77.1357 15.4348C76.7534 15.8338 76.5622 16.3657 76.5622 17.0306V24.9849H72.024Z" fill="#131313"/>
  <path d="M95.2448 25.4836C94.0313 25.4836 92.9508 25.3008 92.0033 24.9351C91.0557 24.5693 90.2495 24.0623 89.5846 23.414C88.9362 22.7657 88.4375 22.0177 88.0885 21.1699C87.756 20.3221 87.5898 19.4161 87.5898 18.4519V17.8535C87.5898 16.8561 87.7643 15.9252 88.1134 15.0608C88.4791 14.1964 88.9944 13.44 89.6594 12.7917C90.3243 12.1434 91.1305 11.6364 92.0781 11.2706C93.0256 10.9049 94.0812 10.7221 95.2448 10.7221C96.4251 10.7221 97.4807 10.9049 98.4116 11.2706C99.3591 11.6364 100.165 12.1434 100.83 12.7917C101.495 13.44 102.002 14.1964 102.351 15.0608C102.717 15.9252 102.9 16.8561 102.9 17.8535V18.4519C102.9 19.4161 102.725 20.3221 102.376 21.1699C102.044 22.0177 101.545 22.7657 100.88 23.414C100.232 24.0623 99.4339 24.5693 98.4864 24.9351C97.5388 25.3008 96.4583 25.4836 95.2448 25.4836ZM95.2448 21.6935C95.943 21.6935 96.5165 21.5439 96.9653 21.2447C97.4308 20.9455 97.7799 20.5299 98.0126 19.9979C98.2453 19.4493 98.3617 18.8343 98.3617 18.1527C98.3617 17.4379 98.237 16.8145 97.9877 16.2826C97.755 15.734 97.4059 15.3018 96.9404 14.986C96.475 14.6701 95.9098 14.5122 95.2448 14.5122C94.5799 14.5122 94.0147 14.6701 93.5492 14.986C93.0838 15.3018 92.7264 15.734 92.477 16.2826C92.2443 16.8145 92.1279 17.4379 92.1279 18.1527C92.1279 18.8343 92.2443 19.4493 92.477 19.9979C92.7098 20.5299 93.0588 20.9455 93.5243 21.2447C93.9898 21.5439 94.5633 21.6935 95.2448 21.6935Z" fill="#131313"/>
  <path d="M110.845 25.4338C108.85 25.4338 107.279 25.0265 106.132 24.2119C104.985 23.3808 104.37 22.2171 104.287 20.721H108.277C108.343 21.1366 108.601 21.494 109.05 21.7932C109.499 22.0925 110.13 22.2421 110.945 22.2421C111.527 22.2421 112.025 22.159 112.441 21.9927C112.873 21.8099 113.089 21.519 113.089 21.12C113.089 20.7709 112.923 20.4883 112.591 20.2722C112.258 20.0395 111.651 19.8816 110.77 19.7984L109.823 19.6987C108.061 19.5158 106.764 19.0338 105.933 18.2525C105.102 17.4712 104.686 16.4904 104.686 15.3101C104.686 14.2961 104.936 13.4649 105.434 12.8166C105.933 12.1517 106.623 11.653 107.504 11.3205C108.385 10.9881 109.391 10.8218 110.521 10.8218C112.366 10.8218 113.854 11.2291 114.984 12.0436C116.115 12.8416 116.713 13.9969 116.78 15.5096H112.79C112.724 15.094 112.499 14.7449 112.117 14.4623C111.735 14.1631 111.186 14.0135 110.471 14.0135C109.956 14.0135 109.532 14.1049 109.2 14.2878C108.884 14.4706 108.726 14.7283 108.726 15.0608C108.726 15.4099 108.875 15.6675 109.175 15.8338C109.49 16 109.989 16.1247 110.671 16.2078L111.618 16.3075C113.38 16.4904 114.735 16.9808 115.683 17.7787C116.647 18.56 117.129 19.5906 117.129 20.8706C117.129 21.8182 116.871 22.6327 116.356 23.3143C115.857 23.9958 115.134 24.5195 114.187 24.8852C113.256 25.2509 112.142 25.4338 110.845 25.4338Z" fill="#131313"/>
</svg>