<svg width="16" height="16" viewBox="0 0 16 16" fill="none" xmlns="http://www.w3.org/2000/svg">
<g id="mingcute:exit-line" clip-path="url(#clip0_237_97)">
<g id="Group">
<path id="Vector" d="M8.00065 2C7.83073 2.00019 7.6673 2.06525 7.54374 2.1819C7.42018 2.29855 7.34583 2.45797 7.33587 2.6276C7.32591 2.79722 7.3811 2.96425 7.49016 3.09455C7.59922 3.22486 7.75392 3.3086 7.92265 3.32867L8.00065 3.33333H11.334C11.4973 3.33335 11.6549 3.3933 11.7769 3.50181C11.8989 3.61032 11.9769 3.75983 11.996 3.922L12.0007 4V12C12.0006 12.1633 11.9407 12.3209 11.8322 12.4429C11.7237 12.5649 11.5742 12.6429 11.412 12.662L11.334 12.6667H8.33398C8.16406 12.6669 8.00063 12.7319 7.87707 12.8486C7.75351 12.9652 7.67916 13.1246 7.6692 13.2943C7.65924 13.4639 7.71443 13.6309 7.82349 13.7612C7.93255 13.8915 8.08725 13.9753 8.25598 13.9953L8.33398 14H11.334C11.8441 14 12.335 13.8051 12.7062 13.4551C13.0773 13.1052 13.3007 12.6266 13.3307 12.1173L13.334 12V4C13.334 3.48986 13.1391 2.99899 12.7891 2.62783C12.4392 2.25666 11.9606 2.03326 11.4513 2.00333L11.334 2H8.00065ZM4.19598 5.64267L2.31065 7.52867C2.18567 7.65369 2.11546 7.82322 2.11546 8C2.11546 8.17678 2.18567 8.34631 2.31065 8.47133L4.19598 10.3573C4.32108 10.4823 4.49071 10.5525 4.66755 10.5525C4.8444 10.5524 5.01398 10.4821 5.13898 10.357C5.26399 10.2319 5.33418 10.0623 5.33412 9.88543C5.33406 9.70858 5.26375 9.53901 5.13865 9.414L4.39132 8.66667H8.00065C8.17746 8.66667 8.34703 8.59643 8.47206 8.4714C8.59708 8.34638 8.66732 8.17681 8.66732 8C8.66732 7.82319 8.59708 7.65362 8.47206 7.5286C8.34703 7.40357 8.17746 7.33333 8.00065 7.33333H4.39132L5.13865 6.586C5.26375 6.46099 5.33406 6.29142 5.33412 6.11457C5.33418 5.93772 5.26399 5.76809 5.13898 5.643C5.01398 5.51791 4.8444 5.44759 4.66755 5.44753C4.49071 5.44747 4.32108 5.51766 4.19598 5.64267Z" fill="black"/>
</g>
</g>
<defs>
<clipPath id="clip0_237_97">
<rect width="16" height="16" fill="white" transform="matrix(-1 0 0 1 16 0)"/>
</clipPath>
</defs>
</svg>
