<svg width="25" height="24" viewBox="0 0 25 24" fill="none" xmlns="http://www.w3.org/2000/svg">
<g id="fluent:mail-20-filled">
<path id="Vector" d="M22.1004 8.84765V17.4C22.1004 18.1957 21.7843 18.9588 21.2217 19.5214C20.6591 20.084 19.896 20.4 19.1004 20.4H5.90039C5.10474 20.4 4.34168 20.084 3.77907 19.5214C3.21646 18.9588 2.90039 18.1957 2.90039 17.4V8.84765L12.1956 14.3172C12.2879 14.3717 12.3932 14.4004 12.5004 14.4004C12.6076 14.4004 12.7128 14.3717 12.8052 14.3172L22.1004 8.84765ZM19.1004 4.80005C19.8386 4.79993 20.5509 5.07198 21.101 5.56414C21.6512 6.0563 22.0006 6.73402 22.0824 7.46765L12.5004 13.104L2.91839 7.46765C3.00018 6.73402 3.34958 6.0563 3.89974 5.56414C4.44991 5.07198 5.16222 4.79993 5.90039 4.80005H19.1004Z" fill="#131313"/>
</g>
</svg>
